<!DOCTYPE svg PUBLIC "-//W3C//DTD SVG 1.1//EN" "http://www.w3.org/Graphics/SVG/1.1/DTD/svg11.dtd">
<!-- Uploaded to: SVG Repo, www.svgrepo.com, Transformed by: SVG Repo Mixer Tools -->
<svg fill="#000000" width="91px" height="91px" viewBox="-204.8 -204.8 1433.60 1433.60" xmlns="http://www.w3.org/2000/svg" class="icon">
<g id="SVGRepo_bgCarrier" stroke-width="0"/>
<g id="SVGRepo_tracerCarrier" stroke-linecap="round" stroke-linejoin="round"/>
<g id="SVGRepo_iconCarrier"> <path d="M145 96l66 746.6L511.8 928l299.6-85.4L878.7 96H145zm610.9 700.6l-244.1 69.6-245.2-69.6-56.7-641.2h603.8l-57.8 641.2zM281 249l1.7 24.3 22.7 253.5h206.5v-.1h112.9l-11.4 118.5L511 672.9v.2h-.8l-102.4-27.7-6.5-73.2h-91l11.3 144.7 188.6 52h1.7v-.4l187.7-51.7 1.7-16.3 21.2-242.2 3.2-24.3H511v.2H389.9l-8.2-94.2h352.1l1.7-19.5 4.8-47.2L742 249H511z"/> </g>
</svg>