<!DOCTYPE svg PUBLIC "-//W3C//DTD SVG 1.1//EN" "http://www.w3.org/Graphics/SVG/1.1/DTD/svg11.dtd">
<!-- Uploaded to: SVG Repo, www.svgrepo.com, Transformed by: SVG Repo Mixer Tools -->
<svg height="91px" width="91px" version="1.1" id="Layer_1" xmlns="http://www.w3.org/2000/svg" xmlns:xlink="http://www.w3.org/1999/xlink" viewBox="-102.4 -102.4 716.80 716.80" xml:space="preserve" fill="#000000">
<g id="SVGRepo_bgCarrier" stroke-width="0"/>
<g id="SVGRepo_tracerCarrier" stroke-linecap="round" stroke-linejoin="round"/>
<g id="SVGRepo_iconCarrier"> <path style="fill:#ECB45C;" d="M442.168,263.758h-23.273H255.986H93.077H69.804c-1.607,0-3.176,0.163-4.69,0.473 c-5.303,1.085-9.948,3.973-13.269,7.997c-3.32,4.023-5.314,9.18-5.314,14.805v201.697c0,3.213,0.652,6.274,1.829,9.059 c2.945,6.962,9.179,12.192,16.753,13.742c1.514,0.31,3.083,0.473,4.69,0.473h186.182h186.182c12.853,0,23.273-10.42,23.273-23.273 v-201.7C465.441,274.178,455.021,263.758,442.168,263.758z"/> <path style="fill:#E0E0E2;" d="M46.531,287.03c0-12.853,10.42-23.273,23.273-23.273h23.273h162.909h162.909h23.273 c12.853,0,23.273,10.42,23.273,23.273V179.018c-0.321,12.573-10.589,22.672-23.242,22.672c-0.012,0-0.022,0-0.031,0h-23.273H287.016 c-12.853,0-23.273-10.42-23.273-23.273V46.545V23.273c0-9.411,5.669-17.898,14.367-21.501c2.993-1.24,6.139-1.801,9.253-1.753 C287.248,0.016,287.133,0,287.016,0H69.804C56.951,0,46.532,10.42,46.532,23.273C46.532,23.273,46.532,287.03,46.531,287.03z"/> <path style="fill:#C6C5CA;" d="M263.744,23.273v23.273v131.873c0,12.853,10.42,23.273,23.273,23.273h131.879h23.273 c0.009,0,0.019,0,0.031,0c12.653,0,22.921-10.1,23.242-22.672c0.005-0.202,0.031-0.397,0.031-0.6c0-4.821-1.486-9.286-3.998-13.003 c-0.003-0.003-0.006-0.009-0.009-0.012c-0.397-0.588-0.824-1.153-1.271-1.7c-0.036-0.045-0.071-0.092-0.109-0.137 c-0.424-0.512-0.875-1.001-1.339-1.472c-0.073-0.074-0.144-0.149-0.217-0.222c-0.205-0.2-0.394-0.419-0.605-0.613L303.476,6.822 c-0.006-0.008-0.016-0.016-0.022-0.022c-0.475-0.473-0.973-0.92-1.485-1.35c-0.158-0.133-0.324-0.259-0.486-0.386 c-0.375-0.298-0.757-0.585-1.148-0.861c-0.192-0.133-0.383-0.265-0.579-0.393c-0.411-0.27-0.833-0.523-1.263-0.768 c-0.166-0.093-0.33-0.199-0.498-0.287c-0.562-0.303-1.14-0.579-1.73-0.833c-0.233-0.102-0.473-0.189-0.709-0.282 c-0.393-0.155-0.787-0.303-1.19-0.436c-0.268-0.088-0.537-0.175-0.808-0.254c-0.451-0.132-0.909-0.247-1.372-0.352 c-0.199-0.045-0.396-0.101-0.596-0.143c-0.649-0.129-1.308-0.228-1.972-0.299c-0.203-0.025-0.406-0.036-0.61-0.054 c-0.543-0.045-1.091-0.074-1.646-0.082c-3.114-0.048-6.26,0.514-9.253,1.753C269.414,5.374,263.744,13.861,263.744,23.273z"/> <polygon style="fill:#A9A8AE;" points="303.473,6.817 303.455,6.8 303.476,6.822 "/> <g> <path style="fill:#57565C;" d="M174.871,347.443c-5.309,0-9.162,3.513-9.162,8.352v20.579h-13.476v-20.581 c0-4.76-3.939-8.352-9.162-8.352c-5.308,0-9.16,3.513-9.16,8.352v61.002c0,4.786,4.025,8.536,9.16,8.536 c5.139,0,9.162-3.75,9.162-8.536v-22.903h13.476v22.903c0,4.867,3.939,8.536,9.162,8.536c5.14,0,9.165-3.75,9.165-8.536v-61.002 C184.036,351.033,180.095,347.443,174.871,347.443z"/> <path style="fill:#57565C;" d="M372.986,407.457h-19.324v-51.664c0-4.76-3.939-8.352-9.162-8.352c-5.308,0-9.16,3.513-9.16,8.352 v61.002c0,4.786,3.907,8.536,8.893,8.536h28.753c4.662,0,8.178-3.86,8.178-8.982C381.165,411.282,377.648,407.457,372.986,407.457z "/> <path style="fill:#57565C;" d="M239.866,347.443h-35.922c-4.737,0-8.445,3.945-8.445,8.98c0,5.038,3.71,8.985,8.445,8.985h8.844 v51.389c0,4.867,3.941,8.536,9.165,8.536c5.137,0,9.159-3.75,9.159-8.536v-51.389h8.755c4.814,0,8.443-3.901,8.443-9.072 C248.309,351.266,244.679,347.443,239.866,347.443z"/> <path style="fill:#57565C;" d="M309.24,347.443c-4.229,0-7.678,2.512-10.256,7.472l-9.899,19.101l-9.899-19.107 c-2.574-4.954-6.026-7.467-10.257-7.467c-5.308,0-9.159,3.815-9.159,9.073v60.283c0,4.786,4.023,8.536,9.159,8.536 c5.14,0,9.165-3.75,9.165-8.536v-25.245l3.095,5.947c2.484,4.667,6.287,5.171,7.806,5.171c3.261,0,6.136-1.88,7.908-5.187 l3.176-6.007v25.319c0,4.786,4.025,8.536,9.16,8.536c5.222,0,9.162-3.669,9.162-8.536v-60.283 C318.404,351.173,314.635,347.443,309.24,347.443z"/> </g> <path style="fill:#FF9811;" d="M93.077,263.758H69.804c-12.853,0-23.273,10.42-23.273,23.273v201.697 c0,12.853,10.42,23.273,23.273,23.273h186.182V263.758H93.077z M184.036,416.797c0,4.786-4.026,8.536-9.165,8.536 c-5.222,0-9.162-3.669-9.162-8.536v-22.903h-13.476v22.903c0,4.786-4.025,8.536-9.162,8.536c-5.137,0-9.16-3.75-9.16-8.536v-61.004 c0-4.839,3.852-8.352,9.16-8.352c5.222,0,9.162,3.59,9.162,8.352v20.579h13.476v-20.579c0-4.839,3.852-8.352,9.162-8.352 c5.224,0,9.165,3.59,9.165,8.352V416.797z M239.866,365.408h-8.755v51.389c0,4.786-4.023,8.536-9.159,8.536 c-5.224,0-9.165-3.669-9.165-8.536v-51.389h-8.844c-4.737,0-8.445-3.947-8.445-8.985c0-5.035,3.71-8.98,8.445-8.98h35.922 c4.814,0,8.443,3.824,8.443,8.893C248.309,361.508,244.679,365.408,239.866,365.408z"/> </g>
</svg>