<!DOCTYPE svg PUBLIC "-//W3C//DTD SVG 1.1//EN" "http://www.w3.org/Graphics/SVG/1.1/DTD/svg11.dtd">
<!-- Uploaded to: SVG Repo, www.svgrepo.com, Transformed by: SVG Repo Mixer Tools -->
<svg fill="#000000" height="91px" width="91px" version="1.1" id="Layer_1" xmlns="http://www.w3.org/2000/svg" xmlns:xlink="http://www.w3.org/1999/xlink" viewBox="-102.4 -102.4 716.80 716.80" xml:space="preserve">
<g id="SVGRepo_bgCarrier" stroke-width="0"/>
<g id="SVGRepo_tracerCarrier" stroke-linecap="round" stroke-linejoin="round"/>
<g id="SVGRepo_iconCarrier"> <g> <g> <path d="M417.169,190.627c-32.84-58-94.596-94.031-161.169-94.031s-128.329,36.03-161.17,94.031c-1.442,2.546-1.442,5.664,0,8.211 c32.841,58,94.597,94.031,161.17,94.031c21.965,0,43.464-3.813,63.901-11.332c4.318-1.589,6.531-6.378,4.943-10.696 c-1.589-4.318-6.377-6.534-10.696-4.943c-18.587,6.839-38.15,10.306-58.146,10.306c-58.995,0-113.835-31.097-144.267-81.471 c14.748-24.412,35.238-44.278,59.145-58.29c-2.566,8.394-3.895,17.174-3.895,26.102c0,49.159,39.994,89.154,89.154,89.154 c49.153,0,89.143-39.994,89.143-89.154c0-8.863-1.308-17.58-3.836-25.913c23.769,14.002,44.142,33.799,58.824,58.103 c-15.357,25.432-37.12,46.358-63.191,60.708c-4.032,2.219-5.501,7.286-3.283,11.317c2.22,4.032,7.286,5.5,11.317,3.283 c30.169-16.604,55.086-41.225,72.058-71.202C418.611,196.291,418.611,193.174,417.169,190.627z M256.136,235.033 c-39.971,0-72.49-32.519-72.49-72.49c0-13.27,3.584-26.143,10.386-37.403c19.447-7.717,40.426-11.878,61.967-11.878 c21.661,0,42.757,4.207,62.297,12.007c6.759,11.214,10.318,24.043,10.318,37.275C328.614,202.514,296.1,235.033,256.136,235.033z"/> </g> </g> <g> <g> <path d="M471.246,24.766H40.754C18.283,24.766,0,43.049,0,65.52v59.227c0,4.602,3.731,8.332,8.332,8.332 c4.601,0,8.332-3.731,8.332-8.332V65.52c0-13.284,10.807-24.09,24.09-24.09h430.492c13.284,0,24.09,10.807,24.09,24.09v284.411 h-52.21c-4.602,0-8.332,3.731-8.332,8.332s3.731,8.332,8.332,8.332h52.21v15.273c0,13.284-10.807,24.09-24.09,24.09h-155.41 H196.164H40.754c-13.284,0-24.09-10.807-24.09-24.09v-15.273h398.688c4.602,0,8.332-3.731,8.332-8.332s-3.731-8.332-8.332-8.332 H16.664V152.522c0-4.602-3.731-8.332-8.332-8.332c-4.601,0-8.332,3.73-8.332,8.332V381.87c0,22.472,18.283,40.754,40.754,40.754 H183.54l-20.494,47.945h-40.034c-4.602,0-8.332,3.731-8.332,8.332s3.731,8.332,8.332,8.332h265.975 c4.602,0,8.332-3.731,8.332-8.332s-3.731-8.332-8.332-8.332h-40.034l-20.494-47.945h142.786c22.472,0,40.754-18.282,40.754-40.754 V65.52C512,43.049,493.717,24.766,471.246,24.766z M330.83,470.568H181.17l14.238-33.31h121.185L330.83,470.568z"/> </g> </g> <g> <g> <path d="M262.924,379.679c-1.914-2.906-5.583-4.299-8.952-3.457c-3.517,0.879-6.116,4.048-6.291,7.67 c-0.364,7.534,9.106,11.629,14.33,6.172C264.674,387.282,265.089,382.887,262.924,379.679z"/> </g> </g> </g>
</svg>